<?xml version="1.0" encoding="UTF-8"?>
<svg xmlns="http://www.w3.org/2000/svg" viewBox="0 0 300 96">
  <defs>
    <style>
      .cls-1 {
        fill: #70c5e8;
      }

      .cls-2 {
        fill: #1f2937;
      }

      .cls-3 {
        fill: #fff;
      }

      .cls-4 {
        fill: #e9954b;
      }

      .cls-5 {
        fill: #fbdc54;
      }
    </style>
  </defs>
  <rect class="cls-2" width="300" height="96"/>
  <g id="Layer_1" data-name="Layer 1">
    <g id="object-0">
      <path class="cls-4" d="M12.75.2h63.73v28.68H12.75C5.71,28.88,0,23.17,0,16.13v-3.19C0,5.91,5.71.2,12.75.2Z"/>
      <path class="cls-5" d="M12.75,67.12h63.73v28.68H12.75C5.71,95.8,0,90.09,0,83.05v-3.19C0,72.83,5.71,67.12,12.75,67.12Z"/>
      <path class="cls-1" d="M25.49,33.66h50.98v28.68H25.49c-7.04,0-12.75-5.71-12.75-12.75v-3.19c0-7.04,5.71-12.75,12.75-12.75Z"/>
      <path class="cls-3" d="M88.18,18.97V.2h79.29v18.77h-28.44v76.83h-22.36V18.97h-28.49Z"/>
      <path class="cls-3" d="M180.21,95.8c-7.2,0-13.38-1.48-18.53-4.44-5.16-2.96-9.14-7.09-11.92-12.4-2.78-5.31-4.17-11.47-4.17-18.49s1.39-13.22,4.17-18.54c2.78-5.31,6.76-9.44,11.92-12.4,5.15-2.96,11.33-4.45,18.53-4.45s13.38,1.48,18.53,4.45c5.16,2.95,9.13,7.09,11.91,12.4,2.78,5.31,4.17,11.49,4.17,18.54s-1.39,13.18-4.17,18.49c-2.78,5.31-6.75,9.44-11.91,12.4-5.16,2.96-11.33,4.44-18.53,4.44ZM180.35,79.34c2.61,0,4.83-.81,6.64-2.42,1.82-1.6,3.21-3.83,4.17-6.69.97-2.85,1.45-6.15,1.45-9.9s-.48-7.14-1.45-9.99c-.97-2.86-2.36-5.09-4.17-6.69-1.81-1.61-4.03-2.41-6.64-2.41s-4.99.8-6.85,2.41-3.27,3.84-4.24,6.69c-.97,2.85-1.45,6.19-1.45,9.99s.48,7.05,1.45,9.9c.97,2.86,2.38,5.09,4.24,6.69,1.86,1.61,4.14,2.42,6.85,2.42Z"/>
      <path class="cls-3" d="M242.2.2v95.6h-22.4V.2h22.4Z"/>
      <path class="cls-3" d="M270.67.2v95.6h-22.4V.2h22.4Z"/>
      <path class="cls-3" d="M277.43,95.8V28.5h22.25v67.29h-22.25ZM288.58,20.66c-3.12,0-5.81-1-8.06-3-2.24-2-3.36-4.42-3.36-7.25s1.12-5.21,3.36-7.21c2.25-2,4.93-3,8.06-3s5.85,1,8.08,3c2.23,2,3.35,4.4,3.35,7.21s-1.12,5.25-3.35,7.25c-2.23,2-4.92,3-8.08,3Z"/>
    </g>
  </g>
</svg>